<?xml version="1.0" encoding="UTF-8" standalone="no"?>
<!DOCTYPE svg PUBLIC "-//W3C//DTD SVG 1.1//EN" "http://www.w3.org/Graphics/SVG/1.1/DTD/svg11.dtd">
<svg width="100%" height="100%" viewBox="0 0 39 34" version="1.1" xmlns="http://www.w3.org/2000/svg" xmlns:xlink="http://www.w3.org/1999/xlink" xml:space="preserve" xmlns:serif="http://www.serif.com/" style="fill-rule:evenodd;clip-rule:evenodd;stroke-linejoin:round;stroke-miterlimit:2;">
    <g transform="matrix(1,0,0,1,-14,-0.993898)">
        <path d="M32.401,1.492C32.786,0.828 33.746,0.828 34.131,1.492L52.396,32.999C52.782,33.665 52.301,34.5 51.53,34.5L28.456,34.5C27.698,34.5 27.215,33.689 27.578,33.023L32.417,24.117C32.795,23.42 33.795,23.42 34.174,24.117L36.815,28.978C36.99,29.299 37.327,29.5 37.694,29.5L39.705,29.5C40.472,29.5 40.953,28.673 40.574,28.006L34.135,16.678C33.752,16.004 32.78,16.004 32.397,16.678L22.553,33.994C22.376,34.307 22.044,34.5 21.684,34.5L15.002,34.5C14.231,34.5 13.75,33.665 14.136,32.999L32.401,1.492Z" stroke="black" stroke-width="0.5" style="fill:#41af9b;"/>
    </g>
</svg>
